<svg width="18" height="16" viewBox="0 0 18 16" fill="none" xmlns="http://www.w3.org/2000/svg">
<path d="M1.49999 0.5H16.5C16.721 0.5 16.933 0.587797 17.0892 0.744078C17.2455 0.900358 17.3333 1.11232 17.3333 1.33333V14.6667C17.3333 14.8877 17.2455 15.0996 17.0892 15.2559C16.933 15.4122 16.721 15.5 16.5 15.5H1.49999C1.27898 15.5 1.06701 15.4122 0.910734 15.2559C0.754454 15.0996 0.666656 14.8877 0.666656 14.6667V1.33333C0.666656 1.11232 0.754454 0.900358 0.910734 0.744078C1.06701 0.587797 1.27898 0.5 1.49999 0.5ZM6.49999 8C6.49999 8.66304 6.76338 9.29893 7.23222 9.76777C7.70106 10.2366 8.33695 10.5 8.99999 10.5C9.66303 10.5 10.2989 10.2366 10.7678 9.76777C11.2366 9.29893 11.5 8.66304 11.5 8H15.6667V2.16667H2.33332V8H6.49999Z" fill="#CBD5E0"/>
</svg>
